<svg xmlns="http://www.w3.org/2000/svg" width="906" height="810" viewBox="0 0 906 810">
<g>
<path d="M 706.82,806.11 L 706.82,806.11 L 704.22,805.50 M 698.40,804.09 L 698.40,804.09 L 694.54,802.94 M 692.60,802.36 L 692.60,802.36 L 691.95,802.16 M 689.68,801.46 L 689.68,801.46 L 684.77,799.72 M 223.29,799.57 L 218.54,801.19 L 223.29,799.56 M 683.79,799.37 L 683.79,799.37 L 682.34,798.84 M 225.77,798.61 L 224.82,798.98 L 225.77,798.61 M 680.84,798.29 L 680.84,798.29 L 676.07,796.34 M 230.72,796.63 L 226.82,798.19 L 230.72,796.63 M 674.97,795.89 L 674.97,795.89 L 673.88,795.43 M 672.05,794.65 L 672.04,794.65 L 668.75,793.12 M 238.05,793.31 L 236.06,794.22 L 238.06,793.31 M 663.45,790.62 L 663.45,790.62 L 662.91,790.34 M 245.30,789.59 L 244.12,790.20 L 245.31,789.59 M 252.48,785.46 L 249.80,787.01 L 252.49,785.46 M 331.81,713.23 L 326.18,718.83 L 323.42,721.58 L 318.16,726.80 L 315.58,729.36 L 310.70,734.19 L 308.31,736.55 L 303.82,740.98 L 301.62,743.15 L 297.51,747.18 L 295.51,749.15 L 291.80,752.77 L 289.99,754.53 L 286.68,757.74 L 285.08,759.30 L 282.17,762.09 L 280.77,763.44 L 278.28,765.81 L 277.08,766.94 L 275.00,768.89 L 274.02,769.81 L 272.36,771.32 L 271.59,772.02 L 270.36,773.09 L 269.00,774.21 L 266.66,775.97 L 261.95,779.30 L 259.59,780.92 L 254.85,783.97 L 253.09,785.08 L 254.86,783.97 L 259.60,780.92 L 261.96,779.29 L 266.66,775.97 L 269.00,774.20 L 270.36,773.09 L 271.60,772.01 L 272.38,771.30 L 274.05,769.77 L 275.04,768.85 L 277.14,766.88 L 278.34,765.74 L 280.86,763.34 L 282.28,761.98 L 285.21,759.16 L 286.83,757.59 L 290.18,754.34 L 292.00,752.56 L 295.75,748.90 L 297.77,746.92 L 301.92,742.85 L 304.14,740.66 L 308.68,736.18 L 311.09,733.80 L 316.02,728.92 L 318.63,726.34 L 323.93,721.07 L 326.73,718.29 L 332.06,712.99 M 538.29,676.61 L 544.48,682.79 L 556.58,694.85 L 564.16,702.40 L 567.72,705.94 L 574.69,712.87 L 577.95,716.10 L 584.32,722.42 L 587.29,725.36 L 593.09,731.10 L 595.78,733.76 L 601.03,738.94 L 603.46,741.32 L 608.18,745.96 L 610.35,748.09 L 614.57,752.21 L 616.50,754.08 L 620.24,757.71 L 621.94,759.35 L 625.21,762.50 L 626.69,763.91 L 629.53,766.62 L 630.80,767.81 L 633.23,770.09 L 634.30,771.08 L 636.33,772.95 L 637.22,773.74 L 638.89,775.23 L 639.59,775.84 L 640.92,776.96 L 641.46,777.40 L 641.93,777.77 L 641.47,777.40 L 640.93,776.97 L 639.61,775.85 L 638.91,775.25 L 637.25,773.78 L 636.38,772.99 L 634.36,771.14 L 633.31,770.17 L 630.91,767.92 L 629.65,766.74 L 626.85,764.07 L 625.39,762.68 L 622.16,759.57 L 620.48,757.96 L 616.80,754.38 L 614.90,752.53 L 610.74,748.47 L 608.60,746.38 L 603.95,741.81 L 601.56,739.46 L 596.39,734.37 L 593.74,731.75 L 588.04,726.11 L 585.11,723.21 L 578.85,717.00 L 575.64,713.82 L 568.79,707.01 L 565.29,703.53 L 557.83,696.10 L 545.95,684.26 L 543.49,681.80 L 538.77,677.10 L 536.44,674.78 L 535.15,673.50 M 453.74,593.47 L 454.59,594.23 L 455.24,594.83 L 456.67,596.18 L 457.59,597.05 L 459.57,598.94 L 460.75,600.08 L 463.24,602.49 L 464.67,603.88 L 467.64,606.77 L 469.30,608.39 L 470.22,609.29 L 469.94,609.02 L 467.17,606.37 L 465.84,605.12 L 463.58,603.01 L 462.51,602.02 L 460.70,600.39 L 459.85,599.63 L 458.44,598.42 L 457.78,597.86 L 456.70,597.02 L 456.19,596.64 L 455.39,596.09 L 455.02,595.86 L 454.43,595.57 L 453.72,595.34 L 450.97,594.90 L 451.09,594.78 L 452.20,593.75 L 452.55,593.45 L 453.09,593.00 L 453.13,593.00 M 218.27,801.28 L 210.65,803.57 L 218.27,801.28 Z" fill="rgba(0,0,0,1)"/>
<path d="M 262.67,322.79 L 263.51,322.85 L 265.35,323.04 L 268.50,323.27 L 270.42,323.35 L 274.27,323.77 L 276.21,324.03 L 280.12,324.80 L 282.09,325.23 L 286.11,326.36 L 288.14,326.98 L 292.32,328.50 L 294.44,329.31 L 298.82,331.24 L 301.05,332.25 L 305.69,334.60 L 308.05,335.83 L 312.99,338.62 L 320.81,343.32 L 322.99,344.68 L 327.61,347.76 L 329.96,349.35 L 334.85,352.84 L 337.33,354.64 L 342.46,358.50 L 345.04,360.47 L 350.34,364.65 L 353.00,366.78 L 358.42,371.23 L 361.14,373.49 L 366.63,378.17 L 372.13,382.89 L 383.11,392.82 L 388.56,397.82 L 399.13,408.02 L 404.33,413.12 L 414.09,423.20 L 416.46,425.70 L 420.97,430.61 L 423.18,433.04 L 427.34,437.79 L 429.38,440.14 L 433.14,444.68 L 438.27,451.20 L 439.19,452.42 L 440.95,454.67 L 441.81,455.77 L 443.44,457.77 L 444.24,458.74 L 445.74,460.47 L 446.47,461.30 L 447.80,462.75 L 448.45,463.43 L 449.60,464.57 L 450.16,465.09 L 451.12,465.90 L 451.58,466.26 L 452.33,466.72 L 453.19,467.00 L 453.30,467.00 L 453.72,466.74 L 453.96,466.57 L 454.63,465.99 L 455.00,465.67 L 455.89,464.81 L 456.36,464.36 L 457.44,463.25 L 458.57,462.10 L 461.22,459.20 L 465.56,454.25 L 468.15,451.21 L 473.21,445.37 L 475.72,442.48 L 480.62,436.93 L 483.05,434.19 L 487.82,428.92 L 490.19,426.32 L 494.84,421.30 L 499.46,416.35 L 508.44,407.16 L 512.89,402.68 L 521.62,394.31 L 525.98,390.22 L 534.61,382.55 L 538.93,378.79 L 547.62,371.69 L 551.97,368.19 L 560.84,361.52 L 574.50,351.84 L 576.45,350.51 L 580.23,348.00 L 582.09,346.77 L 585.69,344.46 L 589.25,342.19 L 595.89,338.25 L 599.14,336.37 L 605.20,333.17 L 608.17,331.66 L 613.72,329.18 L 616.44,328.02 L 621.56,326.23 L 624.07,325.41 L 628.81,324.28 L 631.14,323.79 L 635.58,323.29 L 641.96,323.20 L 643.73,323.31 L 646.59,323.46 L 647.29,323.54 L 648.70,323.82 L 649.41,323.99 L 650.93,324.56 L 651.71,324.89 L 653.48,325.87 L 654.41,326.42 L 656.56,327.91 L 657.69,328.74 L 660.36,330.87 L 661.06,331.45 L 662.59,332.75 L 663.37,333.42 L 665.08,334.92 L 665.95,335.70 L 667.84,337.41 L 668.81,338.30 L 670.91,340.24 L 671.99,341.24 L 674.31,343.43 L 675.50,344.56 L 678.06,347.00 L 679.38,348.26 L 682.20,350.98 L 683.64,352.38 L 686.73,355.39 L 688.31,356.93 L 691.69,360.24 L 693.42,361.94 L 697.11,365.57 L 698.99,367.42 L 703.01,371.39 L 705.05,373.41 L 709.40,377.72 L 711.62,379.92 L 716.33,384.59 L 718.73,386.97 L 723.81,392.02 L 726.39,394.59 L 731.86,400.03 L 734.64,402.80 L 740.52,408.65 L 743.51,411.62 L 749.80,417.89 L 759.74,427.77 L 766.53,434.53 L 779.70,447.66 L 782.95,450.90 L 789.29,457.23 L 792.44,460.37 L 798.56,466.49 L 801.59,469.52 L 807.44,475.37 L 810.33,478.27 L 815.89,483.83 L 818.62,486.58 L 823.84,491.81 L 826.40,494.39 L 831.25,499.26 L 833.62,501.65 L 838.06,506.12 L 840.23,508.30 L 844.22,512.34 L 846.16,514.30 L 849.68,517.86 L 851.38,519.58 L 854.38,522.63 L 855.81,524.09 L 858.26,526.60 L 859.41,527.78 L 861.28,529.71 L 862.13,530.60 L 863.38,531.91 L 864.50,533.14 L 867.23,536.36 L 872.24,542.87 L 874.67,546.14 L 879.11,552.79 L 881.26,556.13 L 885.16,562.95 L 887.04,566.38 L 890.40,573.43 L 892.02,576.98 L 894.89,584.30 L 896.26,588.00 L 898.64,595.64 L 899.77,599.51 L 901.69,607.52 L 904.08,620.00 L 904.17,620.59 L 904.35,621.97 L 904.43,622.69 L 904.57,624.33 L 904.72,626.01 L 904.93,629.98 L 905.02,632.04 L 905.13,636.52 L 905.18,638.80 L 905.20,643.51 L 905.20,645.87 L 905.12,650.52 L 905.07,652.80 L 904.90,657.10 L 904.80,659.17 L 904.54,662.81 L 904.04,667.23 L 903.56,670.24 L 902.43,676.10 L 901.83,679.01 L 900.46,684.70 L 899.74,687.52 L 898.12,693.04 L 897.27,695.78 L 895.40,701.15 L 894.43,703.82 L 892.30,709.04 L 891.20,711.63 L 888.81,716.71 L 887.58,719.24 L 884.93,724.20 L 880.66,731.50 L 878.59,734.84 L 874.10,741.25 L 871.81,744.42 L 866.88,750.48 L 864.36,753.46 L 859.01,759.14 L 856.29,761.94 L 850.54,767.23 L 847.61,769.82 L 841.48,774.70 L 838.37,777.08 L 831.88,781.53 L 828.59,783.70 L 821.76,787.69 L 811.15,793.16 L 809.01,794.17 L 804.95,795.98 L 802.95,796.86 L 799.07,798.42 L 795.23,799.93 L 787.69,802.33 L 783.87,803.45 L 775.78,805.25 L 773.69,805.67 L 769.26,806.44 L 762.17,807.52 L 760.33,807.78 L 756.25,808.17 L 754.15,808.35 L 749.69,808.60 L 745.15,808.81 L 735.56,808.79 L 730.77,808.70 L 721.56,808.11 L 719.34,807.93 L 715.18,807.46 L 709.50,806.60 L 706.82,806.11 L 701.22,804.80 L 698.40,804.09 L 692.60,802.36 L 689.68,801.46 L 683.79,799.37 L 680.84,798.29 L 674.97,795.89 L 672.05,794.65 L 666.30,791.98 L 663.45,790.62 L 657.95,787.73 L 655.23,786.27 L 650.08,783.20 L 642.86,778.46 L 642.47,778.19 L 641.46,777.40 L 640.92,776.96 L 639.59,775.84 L 638.89,775.23 L 637.22,773.74 L 636.33,772.95 L 634.30,771.08 L 633.23,770.09 L 630.80,767.81 L 629.53,766.62 L 626.69,763.91 L 625.21,762.50 L 621.94,759.35 L 620.24,757.71 L 616.50,754.08 L 614.57,752.21 L 610.35,748.09 L 608.18,745.96 L 603.46,741.32 L 601.03,738.94 L 595.78,733.76 L 593.09,731.10 L 587.29,725.36 L 584.32,722.42 L 577.95,716.10 L 574.69,712.87 L 567.72,705.94 L 564.16,702.40 L 556.58,694.85 L 544.48,682.79 L 538.29,676.61 L 526.37,664.75 L 523.43,661.84 L 517.72,656.16 L 514.90,653.36 L 509.42,647.92 L 506.71,645.24 L 501.50,640.08 L 498.93,637.54 L 494.01,632.68 L 491.59,630.29 L 487.00,625.76 L 484.74,623.54 L 480.51,619.37 L 478.44,617.34 L 474.60,613.57 L 472.72,611.74 L 469.30,608.39 L 467.64,606.77 L 464.67,603.88 L 463.24,602.49 L 460.75,600.08 L 459.57,598.94 L 457.59,597.05 L 456.67,596.18 L 455.24,594.83 L 454.59,594.23 L 453.74,593.47 L 453.13,593.00 L 453.09,593.00 L 452.55,593.45 L 452.20,593.75 L 451.09,594.78 L 450.46,595.37 L 448.81,596.95 L 447.91,597.80 L 445.74,599.90 L 444.60,601.01 L 441.95,603.59 L 440.56,604.94 L 437.46,607.98 L 435.85,609.55 L 432.33,613.02 L 430.52,614.81 L 426.60,618.67 L 424.59,620.65 L 420.32,624.89 L 418.13,627.05 L 413.53,631.62 L 411.18,633.94 L 406.27,638.83 L 403.78,641.30 L 398.60,646.46 L 395.98,649.07 L 390.56,654.48 L 387.82,657.21 L 382.19,662.84 L 364.66,680.39 L 361.14,683.92 L 354.36,690.71 L 351.02,694.05 L 344.61,700.47 L 341.44,703.63 L 335.39,709.66 L 332.41,712.63 L 326.73,718.29 L 323.93,721.07 L 318.63,726.34 L 316.02,728.92 L 311.09,733.80 L 308.68,736.18 L 304.14,740.66 L 301.92,742.85 L 297.77,746.92 L 295.75,748.90 L 292.00,752.56 L 290.18,754.34 L 286.83,757.59 L 285.21,759.16 L 282.28,761.98 L 280.86,763.34 L 278.34,765.74 L 277.14,766.88 L 275.04,768.85 L 274.05,769.77 L 272.38,771.30 L 271.60,772.01 L 270.36,773.09 L 269.00,774.20 L 266.66,775.97 L 261.96,779.29 L 259.60,780.92 L 254.86,783.97 L 252.49,785.46 L 247.71,788.23 L 245.31,789.58 L 240.48,792.09 L 238.06,793.31 L 233.17,795.54 L 230.72,796.63 L 225.77,798.61 L 223.29,799.56 L 218.27,801.28 L 210.65,803.57 L 208.30,804.22 L 203.04,805.33 L 200.33,805.86 L 194.51,806.74 L 191.54,807.15 L 185.33,807.78 L 182.19,808.07 L 175.76,808.45 L 172.54,808.60 L 166.08,808.72 L 162.86,808.74 L 156.54,808.58 L 153.42,808.47 L 147.43,808.03 L 144.49,807.78 L 139.00,807.05 L 134.23,806.34 L 124.71,804.18 L 119.96,802.97 L 110.46,799.83 L 105.71,798.14 L 96.22,794.02 L 81.97,786.73 L 78.81,784.96 L 73.14,781.37 L 70.35,779.54 L 65.00,775.50 L 63.65,774.44 L 60.92,772.16 L 59.55,770.99 L 56.71,768.44 L 55.27,767.13 L 52.25,764.26 L 47.43,759.55 L 44.71,756.83 L 39.68,751.34 L 37.23,748.58 L 32.72,742.94 L 30.52,740.10 L 26.49,734.25 L 24.52,731.29 L 20.93,725.17 L 19.18,722.07 L 15.99,715.60 L 14.44,712.32 L 11.61,705.45 L 10.24,701.96 L 7.74,694.62 L 4.33,683.00 L 3.99,681.71 L 3.42,679.51 L 3.16,678.45 L 2.73,676.50 L 2.54,675.53 L 2.24,673.54 L 2.10,672.51 L 1.91,670.20 L 1.82,668.98 L 1.70,666.06 L 1.65,664.49 L 1.60,660.68 L 1.58,659.65 L 1.57,657.39 L 1.56,656.22 L 1.56,653.63 L 1.56,652.30 L 1.56,649.35 L 1.56,644.50 L 1.56,642.90 L 1.57,639.95 L 1.57,638.52 L 1.58,635.89 L 1.58,634.62 L 1.60,632.28 L 1.61,631.14 L 1.63,629.06 L 1.66,627.04 L 1.75,623.68 L 1.80,622.09 L 1.93,619.43 L 2.01,618.16 L 2.22,615.97 L 2.33,614.92 L 2.62,612.99 L 3.85,607.14 L 4.65,603.84 L 6.44,597.44 L 7.38,594.27 L 9.45,588.12 L 10.53,585.08 L 12.89,579.18 L 14.10,576.26 L 16.75,570.57 L 18.12,567.76 L 21.07,562.28 L 22.59,559.57 L 25.85,554.28 L 27.52,551.66 L 31.10,546.54 L 36.84,539.04 L 37.10,538.72 L 38.15,537.55 L 38.75,536.89 L 40.45,535.07 L 41.37,534.09 L 43.68,531.67 L 44.91,530.38 L 47.80,527.38 L 49.32,525.81 L 52.75,522.28 L 54.53,520.45 L 58.46,516.42 L 60.49,514.34 L 64.89,509.85 L 67.15,507.55 L 71.98,502.63 L 74.45,500.12 L 79.68,494.82 L 82.33,492.13 L 87.92,486.48 L 90.75,483.62 L 96.65,477.66 L 99.63,474.65 L 105.81,468.42 L 108.93,465.27 L 115.36,458.81 L 118.60,455.56 L 125.23,448.90 L 145.72,428.37 L 149.34,424.75 L 156.21,417.88 L 159.59,414.50 L 165.99,408.09 L 169.13,404.95 L 175.07,399.00 L 177.99,396.08 L 183.50,390.56 L 186.20,387.86 L 191.29,382.77 L 193.79,380.27 L 198.49,375.59 L 200.79,373.29 L 205.10,368.99 L 207.22,366.89 L 211.18,362.96 L 213.12,361.04 L 216.74,357.47 L 218.51,355.73 L 221.81,352.50 L 223.42,350.92 L 226.42,348.01 L 227.89,346.59 L 230.60,343.99 L 231.93,342.73 L 234.39,340.41 L 235.58,339.29 L 237.80,337.25 L 238.88,336.26 L 240.87,334.47 L 241.84,333.61 L 243.62,332.07 L 244.49,331.32 L 246.09,330.00 L 246.87,329.37 L 248.30,328.25 L 249.70,327.19 L 252.07,325.61 L 253.20,324.90 L 255.16,323.94 L 256.11,323.53 L 257.81,323.05 L 258.64,322.86 L 260.23,322.73 L 261.03,322.70 M 236.99,373.00 L 236.43,373.46 L 235.61,374.22 L 234.99,374.82 L 233.59,376.16 L 232.69,377.03 L 230.76,378.91 L 229.60,380.04 L 227.15,382.43 L 225.74,383.81 L 222.82,386.69 L 221.18,388.30 L 217.80,391.62 L 215.96,393.45 L 212.16,397.20 L 210.12,399.22 L 205.93,403.36 L 203.70,405.56 L 199.16,410.06 L 196.77,412.44 L 191.90,417.27 L 189.35,419.80 L 184.18,424.93 L 181.50,427.60 L 176.07,433.00 L 173.27,435.79 L 167.61,441.42 L 164.70,444.32 L 152.87,456.11 L 146.72,462.25 L 137.98,470.97 L 132.43,476.52 L 129.79,479.16 L 124.59,484.35 L 122.11,486.82 L 117.25,491.68 L 114.95,493.99 L 110.41,498.53 L 108.26,500.68 L 104.04,504.91 L 102.04,506.92 L 98.12,510.86 L 96.27,512.72 L 92.64,516.38 L 90.92,518.11 L 87.57,521.51 L 85.98,523.11 L 82.89,526.26 L 81.43,527.74 L 78.58,530.66 L 77.25,532.03 L 74.63,534.72 L 73.41,535.98 L 71.02,538.47 L 69.90,539.64 L 67.72,541.93 L 66.70,543.00 L 62.83,547.14 L 61.16,548.97 L 57.98,552.49 L 56.61,554.06 L 54.03,557.07 L 52.92,558.43 L 50.82,561.06 L 49.92,562.27 L 48.20,564.62 L 47.45,565.73 L 44.71,570.05 L 43.51,572.24 L 41.17,576.71 L 39.86,579.31 L 35.16,589.64 L 32.46,596.63 L 31.33,600.17 L 29.21,607.28 L 28.36,610.87 L 26.81,618.06 L 26.25,621.67 L 25.27,628.91 L 24.99,632.53 L 24.57,639.79 L 24.57,643.41 L 24.70,650.64 L 24.98,654.24 L 25.66,661.43 L 26.21,664.99 L 27.45,672.10 L 28.27,675.61 L 30.04,682.60 L 31.13,686.04 L 33.44,692.89 L 34.80,696.24 L 37.64,702.91 L 39.26,706.16 L 42.63,712.61 L 44.51,715.75 L 48.40,721.96 L 50.54,724.96 L 54.95,730.89 L 57.35,733.74 L 62.27,739.36 L 64.92,742.05 L 73.40,750.04 L 79.26,754.96 L 82.29,757.23 L 88.42,761.62 L 91.59,763.62 L 97.98,767.48 L 101.28,769.21 L 107.94,772.53 L 111.37,773.99 L 118.29,776.78 L 121.85,777.97 L 129.04,780.22 L 132.73,781.14 L 140.18,782.86 L 144.00,783.51 L 147.14,783.99 L 148.91,784.17 L 152.56,784.51 L 154.53,784.62 L 162.71,784.94 L 166.99,784.90 L 175.57,784.67 L 179.60,784.36 L 183.56,784.01 L 185.40,783.79 L 188.98,783.31 L 190.58,783.03 L 200.82,780.77 L 207.72,778.86 L 211.12,777.72 L 217.89,775.34 L 221.14,774.01 L 227.53,771.24 L 230.50,769.75 L 237.21,766.24 L 241.36,763.83 L 243.55,762.33 L 245.78,760.76 L 246.99,759.85 L 249.46,757.93 L 250.82,756.81 L 253.64,754.46 L 255.22,753.08 L 258.49,750.18 L 260.34,748.49 L 264.18,744.95 L 266.36,742.90 L 268.57,740.80 L 269.75,739.68 L 272.15,737.38 L 273.43,736.16 L 276.03,733.65 L 277.41,732.31 L 280.23,729.57 L 281.72,728.11 L 284.77,725.13 L 286.38,723.55 L 289.66,720.32 L 291.40,718.61 L 294.94,715.12 L 296.81,713.27 L 300.62,709.50 L 302.63,707.51 L 306.72,703.45 L 308.87,701.31 L 313.26,696.95 L 315.57,694.65 L 320.26,689.98 L 322.73,687.52 L 327.75,682.52 L 330.39,679.89 L 335.74,674.55 L 338.55,671.75 L 344.26,666.06 L 347.25,663.07 L 365.28,645.08 L 371.06,639.30 L 373.86,636.50 L 379.42,630.95 L 382.10,628.26 L 387.40,622.96 L 389.94,620.41 L 394.95,615.39 L 397.34,612.99 L 402.04,608.28 L 404.25,606.06 L 408.60,601.69 L 410.64,599.65 L 414.61,595.65 L 416.44,593.81 L 420.00,590.22 L 421.62,588.59 L 424.74,585.43 L 426.13,584.03 L 428.78,581.35 L 429.92,580.19 L 432.07,578.00 L 432.95,577.10 L 434.57,575.44 L 435.17,574.82 L 436.23,573.72 L 436.53,573.39 L 437.00,572.87 L 437.00,572.85 L 436.55,572.41 L 435.84,571.98 L 435.32,571.72 L 434.18,571.18 L 433.49,570.89 L 432.06,570.29 L 431.27,570.00 L 424.82,567.33 L 420.31,565.22 L 417.95,564.01 L 413.17,561.48 L 410.70,560.07 L 405.69,557.15 L 403.11,555.54 L 397.90,552.25 L 395.23,550.47 L 389.85,546.82 L 387.10,544.88 L 381.58,540.91 L 378.78,538.81 L 373.14,534.54 L 370.29,532.30 L 358.82,523.06 L 353.04,518.09 L 341.45,507.91 L 335.70,502.53 L 324.24,491.59 L 318.64,485.90 L 307.54,474.40 L 302.22,468.50 L 289.87,454.43 L 282.11,445.17 L 278.52,440.67 L 274.97,436.20 L 273.28,434.00 L 269.96,429.65 L 268.39,427.53 L 265.31,423.32 L 263.86,421.28 L 261.04,417.24 L 259.73,415.30 L 256.77,410.71 L 254.70,407.32 L 253.64,405.53 L 249.38,398.13 L 247.41,394.46 L 245.48,390.81 L 244.60,389.08 L 242.90,385.70 L 242.17,384.17 L 240.81,381.22 L 240.28,379.97 L 239.33,377.63 L 239.05,376.75 L 237.95,374.10 L 237.58,373.49 L 237.41,373.30 L 237.10,373.00 M 669.89,373.00 L 669.38,373.62 L 668.84,374.59 L 668.49,375.30 L 667.75,376.86 L 667.34,377.80 L 666.50,379.77 L 666.06,380.85 L 662.32,389.22 L 659.36,395.06 L 657.65,398.10 L 654.08,404.27 L 652.06,407.47 L 647.88,413.97 L 645.55,417.33 L 640.76,424.15 L 638.13,427.68 L 632.73,434.81 L 629.80,438.49 L 623.80,445.93 L 620.57,449.77 L 613.97,457.51 L 610.44,461.50 L 594.68,478.71 L 584.05,489.71 L 578.71,494.94 L 568.01,505.23 L 562.67,510.08 L 552.01,519.57 L 546.72,523.99 L 536.19,532.61 L 531.00,536.57 L 525.83,540.46 L 523.27,542.31 L 518.17,545.95 L 515.65,547.68 L 510.64,551.06 L 508.17,552.65 L 503.25,555.75 L 500.83,557.20 L 496.02,560.03 L 493.66,561.33 L 488.96,563.87 L 486.67,565.02 L 481.54,567.69 L 478.46,569.39 L 477.18,570.14 L 475.96,570.86 L 475.43,571.19 L 474.44,571.82 L 474.05,572.09 L 473.33,572.60 L 473.08,572.80 L 472.67,573.16 L 472.60,573.28 L 472.58,573.70 L 472.76,574.14 L 472.95,574.46 L 473.42,575.16 L 473.78,575.63 L 474.58,576.64 L 475.13,577.28 L 476.33,578.66 L 477.09,579.51 L 478.73,581.30 L 479.73,582.37 L 481.86,584.63 L 483.13,585.96 L 485.79,588.74 L 487.35,590.34 L 490.61,593.69 L 492.48,595.60 L 496.38,599.57 L 498.59,601.81 L 503.18,606.46 L 505.75,609.05 L 508.37,611.69 L 509.75,613.08 L 512.56,615.91 L 514.04,617.39 L 517.05,620.42 L 518.63,622.01 L 521.85,625.23 L 523.54,626.92 L 526.97,630.36 L 528.76,632.16 L 532.41,635.80 L 534.31,637.71 L 538.18,641.58 L 540.20,643.60 L 544.30,647.70 L 546.44,649.84 L 550.78,654.17 L 553.04,656.43 L 557.62,661.00 L 560.00,663.38 L 569.66,673.01 L 575.93,679.26 L 578.97,682.29 L 585.00,688.28 L 587.92,691.17 L 593.68,696.89 L 596.46,699.64 L 601.94,705.07 L 604.57,707.66 L 609.74,712.77 L 612.21,715.20 L 617.06,719.97 L 619.35,722.22 L 623.85,726.64 L 625.97,728.71 L 630.10,732.75 L 632.02,734.62 L 635.76,738.26 L 637.48,739.92 L 640.81,743.14 L 642.31,744.59 L 645.21,747.37 L 646.49,748.59 L 648.93,750.91 L 649.98,751.89 L 651.95,753.73 L 652.75,754.47 L 654.22,755.80 L 654.77,756.28 L 655.72,757.10 L 656.00,757.30 L 662.92,762.12 L 667.66,765.12 L 670.10,766.51 L 675.01,769.21 L 677.52,770.46 L 682.59,772.87 L 685.19,773.97 L 690.41,776.08 L 693.08,777.03 L 698.45,778.85 L 701.18,779.65 L 706.69,781.16 L 709.49,781.81 L 715.13,783.02 L 718.00,783.51 L 721.09,783.98 L 722.82,784.16 L 726.40,784.49 L 728.32,784.61 L 736.33,784.93 L 740.54,784.89 L 749.00,784.67 L 753.02,784.36 L 756.99,784.03 L 758.86,783.81 L 762.50,783.34 L 764.15,783.06 L 772.24,781.42 L 777.56,780.10 L 780.18,779.32 L 785.39,777.69 L 787.95,776.77 L 793.04,774.85 L 795.54,773.78 L 800.49,771.57 L 802.92,770.36 L 807.73,767.87 L 810.08,766.52 L 814.73,763.76 L 817.00,762.28 L 821.49,759.26 L 823.67,757.65 L 827.98,754.37 L 830.07,752.64 L 834.19,749.11 L 836.18,747.26 L 840.10,743.50 L 841.99,741.53 L 845.70,737.54 L 847.47,735.46 L 850.96,731.25 L 852.62,729.06 L 855.88,724.63 L 857.42,722.34 L 860.43,717.71 L 861.84,715.32 L 864.60,710.49 L 865.88,708.00 L 870.36,698.50 L 872.99,692.07 L 874.12,688.82 L 876.25,682.29 L 877.14,678.99 L 878.78,672.38 L 879.42,669.04 L 880.57,662.36 L 880.96,658.99 L 881.61,652.25 L 881.75,648.87 L 881.90,642.09 L 881.79,638.70 L 881.44,631.90 L 881.07,628.50 L 880.22,621.74 L 879.55,617.43 L 879.16,615.34 L 877.42,607.18 L 876.28,603.27 L 873.81,595.50 L 872.26,591.61 L 870.65,587.72 L 869.76,585.74 L 867.91,581.77 L 866.89,579.73 L 865.10,576.16 L 863.98,573.96 L 863.42,572.91 L 861.14,568.84 L 859.74,566.72 L 858.27,564.57 L 857.41,563.42 L 855.61,561.05 L 854.55,559.75 L 852.31,557.04 L 850.99,555.53 L 848.21,552.37 L 846.58,550.58 L 843.15,546.85 L 841.15,544.73 L 839.10,542.56 L 838.00,541.41 L 835.75,539.06 L 834.54,537.80 L 832.06,535.24 L 830.74,533.88 L 828.03,531.10 L 826.59,529.62 L 823.63,526.61 L 822.06,525.01 L 818.85,521.74 L 817.14,520.01 L 813.65,516.49 L 811.80,514.62 L 808.03,510.81 L 806.03,508.80 L 801.95,504.70 L 799.80,502.53 L 795.41,498.12 L 793.09,495.80 L 788.38,491.07 L 785.89,488.58 L 780.84,483.51 L 778.18,480.84 L 772.77,475.42 L 769.93,472.57 L 764.15,466.79 L 761.12,463.75 L 742.91,445.52 L 737.07,439.68 L 734.23,436.84 L 728.62,431.23 L 725.90,428.51 L 720.54,423.16 L 717.96,420.59 L 712.88,415.52 L 710.46,413.10 L 705.69,408.35 L 703.44,406.11 L 699.03,401.71 L 696.96,399.66 L 692.92,395.64 L 691.05,393.79 L 687.43,390.19 L 685.78,388.55 L 682.59,385.40 L 681.17,383.99 L 678.46,381.31 L 677.29,380.16 L 675.08,377.99 L 674.17,377.10 L 672.49,375.46 L 671.87,374.85 L 670.76,373.78 L 670.42,373.47 L 669.91,373.00 Z" fill="rgba(9,69,118,1)"/>
<path d="M 237.41,373.30 L 237.58,373.49 L 237.95,374.10 L 239.05,376.75 L 239.33,377.63 L 240.28,379.97 L 240.81,381.22 L 242.17,384.17 L 242.90,385.70 L 244.60,389.08 L 245.48,390.81 L 247.41,394.46 L 249.38,398.13 L 253.64,405.53 L 254.70,407.32 L 256.77,410.71 L 259.73,415.30 L 261.04,417.24 L 263.86,421.28 L 265.31,423.32 L 268.39,427.53 L 269.96,429.65 L 273.28,434.00 L 274.97,436.20 L 278.52,440.67 L 282.11,445.17 L 289.87,454.43 L 302.22,468.50 L 307.54,474.40 L 318.64,485.90 L 324.24,491.59 L 335.70,502.53 L 341.45,507.91 L 353.04,518.09 L 358.82,523.06 L 370.29,532.30 L 373.14,534.54 L 378.78,538.81 L 381.58,540.91 L 387.10,544.88 L 389.85,546.82 L 395.23,550.47 L 397.90,552.25 L 403.11,555.54 L 405.69,557.15 L 410.70,560.07 L 413.17,561.48 L 417.95,564.01 L 420.31,565.22 L 424.82,567.33 L 431.27,570.00 L 432.06,570.29 L 433.49,570.89 L 434.18,571.18 L 435.32,571.72 L 435.84,571.98 L 436.55,572.41 L 437.00,572.85 L 437.00,572.87 L 436.53,573.39 L 436.23,573.72 L 435.17,574.82 L 434.57,575.44 L 432.95,577.10 L 432.07,578.00 L 429.92,580.19 L 428.78,581.35 L 426.13,584.03 L 424.74,585.43 L 421.62,588.59 L 420.00,590.22 L 416.44,593.81 L 414.61,595.65 L 410.64,599.65 L 408.60,601.69 L 404.25,606.06 L 402.04,608.28 L 397.34,612.99 L 394.95,615.39 L 389.94,620.41 L 387.40,622.96 L 382.10,628.26 L 379.42,630.95 L 373.86,636.50 L 371.06,639.30 L 365.28,645.08 L 347.25,663.07 L 344.26,666.06 L 338.55,671.75 L 335.74,674.55 L 330.39,679.89 L 327.75,682.52 L 322.73,687.52 L 320.26,689.98 L 315.57,694.65 L 313.26,696.95 L 308.87,701.31 L 306.72,703.45 L 302.63,707.51 L 300.62,709.50 L 296.81,713.27 L 294.94,715.12 L 291.40,718.61 L 289.66,720.32 L 286.38,723.55 L 284.77,725.13 L 281.72,728.11 L 280.23,729.57 L 277.41,732.31 L 276.03,733.65 L 273.43,736.16 L 272.15,737.38 L 269.75,739.68 L 268.57,740.80 L 266.36,742.90 L 264.18,744.95 L 260.34,748.49 L 258.49,750.18 L 255.22,753.08 L 253.64,754.46 L 250.82,756.81 L 249.46,757.93 L 246.99,759.85 L 245.78,760.76 L 243.55,762.33 L 241.36,763.83 L 237.21,766.24 L 230.50,769.75 L 227.53,771.24 L 221.14,774.01 L 217.89,775.34 L 211.12,777.72 L 207.72,778.86 L 200.82,780.77 L 190.58,783.03 L 188.98,783.31 L 185.40,783.79 L 183.56,784.01 L 179.60,784.36 L 175.57,784.67 L 166.99,784.90 L 162.71,784.94 L 154.53,784.62 L 152.56,784.51 L 148.91,784.17 L 147.14,783.99 L 144.00,783.51 L 140.18,782.86 L 132.73,781.14 L 129.04,780.22 L 121.85,777.97 L 118.29,776.78 L 111.37,773.99 L 107.94,772.53 L 101.28,769.21 L 97.98,767.48 L 91.59,763.62 L 88.42,761.62 L 82.29,757.23 L 79.26,754.96 L 73.40,750.04 L 64.92,742.05 L 62.27,739.36 L 57.35,733.74 L 54.95,730.89 L 50.54,724.96 L 48.40,721.96 L 44.51,715.75 L 42.63,712.61 L 39.26,706.16 L 37.64,702.91 L 34.80,696.24 L 33.44,692.89 L 31.13,686.04 L 30.04,682.60 L 28.27,675.61 L 27.45,672.10 L 26.21,664.99 L 25.66,661.43 L 24.98,654.24 L 24.70,650.64 L 24.57,643.41 L 24.57,639.79 L 24.99,632.53 L 25.27,628.91 L 26.25,621.67 L 26.81,618.06 L 28.36,610.87 L 29.21,607.28 L 31.33,600.17 L 32.46,596.63 L 35.16,589.64 L 39.86,579.31 L 41.17,576.71 L 43.51,572.24 L 44.71,570.05 L 47.45,565.73 L 48.20,564.62 L 49.92,562.27 L 50.82,561.06 L 52.92,558.43 L 54.03,557.07 L 56.61,554.06 L 57.98,552.49 L 61.16,548.97 L 62.83,547.14 L 66.70,543.00 L 67.72,541.93 L 69.90,539.64 L 71.02,538.47 L 73.41,535.98 L 74.63,534.72 L 77.25,532.03 L 78.58,530.66 L 81.43,527.74 L 82.89,526.26 L 85.98,523.11 L 87.57,521.51 L 90.92,518.11 L 92.64,516.38 L 96.27,512.72 L 98.12,510.86 L 102.04,506.92 L 104.04,504.91 L 108.26,500.68 L 110.41,498.53 L 114.95,493.99 L 117.25,491.68 L 122.11,486.82 L 124.59,484.35 L 129.79,479.16 L 132.43,476.52 L 137.98,470.97 L 146.72,462.25 L 152.87,456.11 L 164.70,444.32 L 167.61,441.42 L 173.27,435.79 L 176.07,433.00 L 181.50,427.60 L 184.18,424.93 L 189.35,419.80 L 191.90,417.27 L 196.77,412.44 L 199.16,410.06 L 203.70,405.56 L 205.93,403.36 L 210.12,399.22 L 212.16,397.20 L 215.96,393.45 L 217.80,391.62 L 221.18,388.30 L 222.82,386.69 L 225.74,383.81 L 227.15,382.43 L 229.60,380.04 L 230.76,378.91 L 232.69,377.03 L 233.59,376.16 L 234.99,374.82 L 235.61,374.22 L 236.43,373.46 L 236.99,373.00 L 237.10,373.00 Z" fill="rgba(125,208,252,1)"/>
<path d="M 670.42,373.47 L 670.76,373.78 L 671.87,374.85 L 672.49,375.46 L 674.17,377.10 L 675.08,377.99 L 677.29,380.16 L 678.46,381.31 L 681.17,383.99 L 682.59,385.40 L 685.78,388.55 L 687.43,390.19 L 691.05,393.79 L 692.92,395.64 L 696.96,399.66 L 699.03,401.71 L 703.44,406.11 L 705.69,408.35 L 710.46,413.10 L 712.88,415.52 L 717.96,420.59 L 720.54,423.16 L 725.90,428.51 L 728.62,431.23 L 734.23,436.84 L 737.07,439.68 L 742.91,445.52 L 761.12,463.75 L 764.15,466.79 L 769.93,472.57 L 772.77,475.42 L 778.18,480.84 L 780.84,483.51 L 785.89,488.58 L 788.38,491.07 L 793.09,495.80 L 795.41,498.12 L 799.80,502.53 L 801.95,504.70 L 806.03,508.80 L 808.03,510.81 L 811.80,514.62 L 813.65,516.49 L 817.14,520.01 L 818.85,521.74 L 822.06,525.01 L 823.63,526.61 L 826.59,529.62 L 828.03,531.10 L 830.74,533.88 L 832.06,535.24 L 834.54,537.80 L 835.75,539.06 L 838.00,541.41 L 839.10,542.56 L 841.15,544.73 L 843.15,546.85 L 846.58,550.58 L 848.21,552.37 L 850.99,555.53 L 852.31,557.04 L 854.55,559.75 L 855.61,561.05 L 857.41,563.42 L 858.27,564.57 L 859.74,566.72 L 861.14,568.84 L 863.42,572.91 L 863.98,573.96 L 865.10,576.16 L 866.89,579.73 L 867.91,581.77 L 869.76,585.74 L 870.65,587.72 L 872.26,591.61 L 873.81,595.50 L 876.28,603.27 L 877.42,607.18 L 879.16,615.34 L 879.55,617.43 L 880.22,621.74 L 881.07,628.50 L 881.44,631.90 L 881.79,638.70 L 881.90,642.09 L 881.75,648.87 L 881.61,652.25 L 880.96,658.99 L 880.57,662.36 L 879.42,669.04 L 878.78,672.38 L 877.14,678.99 L 876.25,682.29 L 874.12,688.82 L 872.99,692.07 L 870.36,698.50 L 865.88,708.00 L 864.60,710.49 L 861.84,715.32 L 860.43,717.71 L 857.42,722.34 L 855.88,724.63 L 852.62,729.06 L 850.96,731.25 L 847.47,735.46 L 845.70,737.54 L 841.99,741.53 L 840.10,743.50 L 836.18,747.26 L 834.19,749.11 L 830.07,752.64 L 827.98,754.37 L 823.67,757.65 L 821.49,759.26 L 817.00,762.28 L 814.73,763.76 L 810.08,766.52 L 807.73,767.87 L 802.92,770.36 L 800.49,771.57 L 795.54,773.78 L 793.04,774.85 L 787.95,776.77 L 785.39,777.69 L 780.18,779.32 L 777.56,780.10 L 772.24,781.42 L 764.15,783.06 L 762.50,783.34 L 758.86,783.81 L 756.99,784.03 L 753.02,784.36 L 749.00,784.67 L 740.54,784.89 L 736.33,784.93 L 728.32,784.61 L 726.40,784.49 L 722.82,784.16 L 721.09,783.98 L 718.00,783.51 L 715.13,783.02 L 709.49,781.81 L 706.69,781.16 L 701.18,779.65 L 698.45,778.85 L 693.08,777.03 L 690.41,776.08 L 685.19,773.97 L 682.59,772.87 L 677.52,770.46 L 675.01,769.21 L 670.10,766.51 L 667.66,765.12 L 662.92,762.12 L 656.00,757.30 L 655.72,757.10 L 654.77,756.28 L 654.22,755.80 L 652.75,754.47 L 651.95,753.73 L 649.98,751.89 L 648.93,750.91 L 646.49,748.59 L 645.21,747.37 L 642.31,744.59 L 640.81,743.14 L 637.48,739.92 L 635.76,738.26 L 632.02,734.62 L 630.10,732.75 L 625.97,728.71 L 623.85,726.64 L 619.35,722.22 L 617.06,719.97 L 612.21,715.20 L 609.74,712.77 L 604.57,707.66 L 601.94,705.07 L 596.46,699.64 L 593.68,696.89 L 587.92,691.17 L 585.00,688.28 L 578.97,682.29 L 575.93,679.26 L 569.66,673.01 L 560.00,663.38 L 557.62,661.00 L 553.04,656.43 L 550.78,654.17 L 546.44,649.84 L 544.30,647.70 L 540.20,643.60 L 538.18,641.58 L 534.31,637.71 L 532.41,635.80 L 528.76,632.16 L 526.97,630.36 L 523.54,626.92 L 521.85,625.23 L 518.63,622.01 L 517.05,620.42 L 514.04,617.39 L 512.56,615.91 L 509.75,613.08 L 508.37,611.69 L 505.75,609.05 L 503.18,606.46 L 498.59,601.81 L 496.38,599.57 L 492.48,595.60 L 490.61,593.69 L 487.35,590.34 L 485.79,588.74 L 483.13,585.96 L 481.86,584.63 L 479.73,582.37 L 478.73,581.30 L 477.09,579.51 L 476.33,578.66 L 475.13,577.28 L 474.58,576.64 L 473.78,575.63 L 473.42,575.16 L 472.95,574.46 L 472.76,574.14 L 472.58,573.70 L 472.60,573.28 L 472.67,573.16 L 473.08,572.80 L 473.33,572.60 L 474.05,572.09 L 474.44,571.82 L 475.43,571.19 L 475.96,570.86 L 477.18,570.14 L 478.46,569.39 L 481.54,567.69 L 486.67,565.02 L 488.96,563.87 L 493.66,561.33 L 496.02,560.03 L 500.83,557.20 L 503.25,555.75 L 508.17,552.65 L 510.64,551.06 L 515.65,547.68 L 518.17,545.95 L 523.27,542.31 L 525.83,540.46 L 531.00,536.57 L 536.19,532.61 L 546.72,523.99 L 552.01,519.57 L 562.67,510.08 L 568.01,505.23 L 578.71,494.94 L 584.05,489.71 L 594.68,478.71 L 610.44,461.50 L 613.97,457.51 L 620.57,449.77 L 623.80,445.93 L 629.80,438.49 L 632.73,434.81 L 638.13,427.68 L 640.76,424.15 L 645.55,417.33 L 647.88,413.97 L 652.06,407.47 L 654.08,404.27 L 657.65,398.10 L 659.36,395.06 L 662.32,389.22 L 666.06,380.85 L 666.50,379.77 L 667.34,377.80 L 667.75,376.86 L 668.49,375.30 L 668.84,374.59 L 669.38,373.62 L 669.89,373.00 L 669.91,373.00 Z" fill="rgba(226,253,231,1)"/>
<path d="M 447.40,346.82 L 447.23,346.69 L 446.47,346.02 L 446.03,345.62 L 444.75,344.42 L 444.05,343.76 L 442.30,342.07 L 441.36,341.17 L 439.15,339.02 L 437.99,337.90 L 435.37,335.33 L 434.01,334.00 L 431.00,331.05 L 429.46,329.53 L 426.11,326.23 L 424.40,324.55 L 420.74,320.93 L 418.88,319.09 L 414.95,315.20 L 412.95,313.22 L 408.78,309.09 L 406.67,306.99 L 402.30,302.65 L 400.09,300.46 L 395.56,295.94 L 390.98,291.39 L 381.48,281.91 L 376.70,277.14 L 366.99,267.43 L 362.13,262.57 L 352.49,252.92 L 347.70,248.12 L 338.42,238.79 L 333.84,234.20 L 325.19,225.49 L 323.08,223.36 L 319.03,219.27 L 317.03,217.26 L 313.24,213.42 L 311.37,211.53 L 307.87,207.98 L 306.16,206.24 L 302.98,203.01 L 301.43,201.44 L 298.61,198.56 L 297.25,197.17 L 294.83,194.69 L 293.68,193.50 L 291.69,191.44 L 290.75,190.47 L 289.23,188.88 L 288.53,188.14 L 287.52,187.05 L 286.60,186.00 L 284.94,183.93 L 281.93,179.83 L 280.48,177.78 L 277.84,173.68 L 276.56,171.62 L 274.27,167.46 L 273.16,165.37 L 271.19,161.08 L 270.24,158.92 L 268.55,154.46 L 267.74,152.20 L 266.32,147.49 L 265.64,145.11 L 264.45,140.10 L 262.92,132.18 L 262.61,130.39 L 262.12,127.09 L 261.89,125.48 L 261.55,122.44 L 261.25,119.46 L 261.11,113.83 L 261.11,111.00 L 261.58,105.03 L 261.74,103.47 L 262.16,100.15 L 262.97,94.73 L 263.46,91.71 L 264.67,85.97 L 265.32,83.14 L 266.86,77.74 L 267.68,75.08 L 269.59,69.97 L 270.59,67.44 L 272.90,62.56 L 274.10,60.14 L 276.83,55.42 L 278.25,53.08 L 281.44,48.48 L 283.09,46.19 L 286.75,41.64 L 292.82,34.81 L 294.63,32.89 L 298.43,29.29 L 300.36,27.53 L 304.40,24.25 L 306.44,22.65 L 310.70,19.68 L 312.85,18.24 L 317.29,15.59 L 319.54,14.31 L 324.16,11.99 L 326.49,10.87 L 331.26,8.88 L 333.66,7.93 L 338.57,6.28 L 341.04,5.50 L 346.06,4.19 L 348.58,3.58 L 353.69,2.62 L 356.25,2.19 L 361.43,1.58 L 364.03,1.32 L 369.26,1.07 L 371.88,0.98 L 377.14,1.09 L 379.77,1.20 L 385.04,1.67 L 387.68,1.96 L 392.94,2.81 L 395.57,3.28 L 400.79,4.50 L 408.58,6.77 L 411.53,7.75 L 416.82,9.87 L 418.13,10.44 L 420.77,11.72 L 422.10,12.39 L 424.87,13.92 L 426.29,14.72 L 429.33,16.58 L 430.90,17.56 L 434.34,19.83 L 436.13,21.02 L 440.11,23.76 L 446.83,28.50 L 453.16,33.02 L 459.07,28.76 L 460.69,27.59 L 464.35,24.94 L 465.22,24.30 L 466.81,23.15 L 468.74,21.74 L 470.18,20.69 L 473.29,18.64 L 474.88,17.63 L 478.25,15.69 L 481.67,13.79 L 489.09,10.39 L 492.86,8.77 L 500.66,6.10 L 512.32,3.08 L 515.37,2.47 L 521.49,1.66 L 524.54,1.32 L 530.63,1.02 L 533.67,0.94 L 539.71,1.15 L 542.72,1.32 L 548.67,2.03 L 551.64,2.45 L 557.49,3.64 L 560.40,4.30 L 566.12,5.96 L 568.96,6.85 L 574.52,8.97 L 577.28,10.08 L 582.66,12.64 L 585.32,13.98 L 590.49,16.97 L 593.05,18.52 L 597.98,21.93 L 600.41,23.68 L 605.08,27.49 L 607.38,29.45 L 611.76,33.65 L 613.91,35.80 L 617.98,40.38 L 619.97,42.71 L 623.69,47.66 L 625.51,50.17 L 628.86,55.47 L 633.45,63.79 L 635.25,67.39 L 638.13,74.85 L 638.79,76.74 L 639.94,80.62 L 640.48,82.58 L 641.40,86.61 L 641.83,88.65 L 642.52,92.85 L 642.84,94.98 L 643.31,99.39 L 643.52,101.62 L 643.79,106.26 L 643.95,113.50 L 643.96,117.27 L 643.54,124.50 L 643.25,128.08 L 642.24,134.96 L 641.65,138.37 L 640.01,144.97 L 639.11,148.25 L 636.83,154.64 L 635.61,157.81 L 632.65,164.05 L 631.09,167.15 L 627.44,173.30 L 625.52,176.37 L 621.15,182.50 L 613.75,191.74 L 613.51,192.02 L 612.77,192.84 L 612.35,193.29 L 611.24,194.46 L 610.65,195.09 L 609.20,196.59 L 608.44,197.38 L 606.68,199.19 L 605.77,200.13 L 603.72,202.23 L 602.66,203.31 L 600.34,205.67 L 599.14,206.89 L 596.57,209.49 L 595.25,210.82 L 592.45,213.65 L 591.03,215.08 L 588.02,218.11 L 586.49,219.65 L 583.29,222.85 L 580.06,226.09 L 573.12,233.02 L 569.58,236.55 L 562.18,243.90 L 550.75,255.24 L 543.01,262.88 L 527.44,278.30 L 523.61,282.09 L 516.18,289.46 L 512.52,293.09 L 505.58,299.98 L 503.88,301.66 L 500.62,304.90 L 499.02,306.49 L 495.95,309.54 L 494.44,311.04 L 491.60,313.87 L 490.20,315.25 L 487.60,317.84 L 486.33,319.10 L 484.00,321.42 L 482.87,322.55 L 480.84,324.58 L 479.86,325.56 L 478.15,327.27 L 475.97,329.45 L 474.68,330.75 L 472.31,333.12 L 471.16,334.26 L 469.05,336.34 L 468.03,337.35 L 466.17,339.15 L 465.27,340.02 L 463.63,341.56 L 462.84,342.30 L 461.40,343.59 L 460.70,344.20 L 459.43,345.26 L 458.21,346.26 L 456.19,347.61 L 455.24,348.19 L 453.64,348.78 L 452.87,348.99 L 451.50,348.93 L 450.83,348.83 L 449.51,348.22 L 448.84,347.86 Z" fill="rgba(251,133,151,1)"/>
</g>
</svg>